<?xml version="1.0" encoding="UTF-8"?>
<svg version="1.1" xmlns="http://www.w3.org/2000/svg" width="512" height="512">
<path d="M0 0 C1.14161087 -0.00960754 2.28322174 -0.01921509 3.45942688 -0.02911377 C4.6937999 -0.03336365 5.92817291 -0.03761353 7.19995117 -0.04199219 C9.10329475 -0.0505423 9.10329475 -0.0505423 11.04508972 -0.05926514 C13.73257025 -0.06871919 16.41993901 -0.0756139 19.10742188 -0.07910156 C22.54055058 -0.08457883 25.97328119 -0.10859421 29.40628529 -0.13707352 C32.69164353 -0.16025111 35.97702262 -0.16215312 39.26245117 -0.16699219 C41.10490166 -0.18551239 41.10490166 -0.18551239 42.98457336 -0.20440674 C53.6616943 -0.17656902 53.6616943 -0.17656902 58.43041992 3.16113281 C62.5934241 7.65578093 61.76867644 13.21782614 61.61791992 18.97363281 C61.59761719 20.44219727 61.59761719 20.44219727 61.5769043 21.94042969 C61.54167304 24.34789906 61.49241257 26.75422846 61.43041992 29.16113281 C62.48841797 29.15065918 63.54641602 29.14018555 64.63647461 29.12939453 C68.61739628 29.09278901 72.59830355 29.07008709 76.5793457 29.05126953 C78.29193638 29.04130326 80.00451046 29.02772534 81.71704102 29.01025391 C106.92107952 28.75983389 106.92107952 28.75983389 116.68041992 33.84863281 C117.59307617 34.30625 118.50573242 34.76386719 119.44604492 35.23535156 C122.07565939 36.93221011 123.82405365 38.54183635 126.01345825 40.72651005 C130.61680935 44.76813286 134.11205794 45.15447049 140.08618164 45.0408783 C141.49913497 45.05597509 141.49913497 45.05597509 142.94063282 45.07137686 C146.08126716 45.09651871 149.21949749 45.07204049 152.36010742 45.04760742 C154.61742883 45.05549909 156.87474128 45.06646201 159.1320343 45.08026123 C165.24938936 45.10897116 171.36597866 45.09476094 177.48333359 45.07281947 C183.88022471 45.05718257 190.2769657 45.08105223 196.67382812 45.10072327 C207.40708372 45.12841188 218.14002928 45.13179011 228.87329102 45.11645508 C239.9257537 45.10073082 250.97805719 45.09971999 262.03051758 45.1184082 C263.05339788 45.1201301 263.05339788 45.1201301 264.09694242 45.12188678 C267.51813012 45.12773642 270.93931722 45.13387438 274.36050415 45.14015567 C302.71718774 45.19184581 331.07371501 45.19253566 359.43041992 45.16113281 C359.41470947 44.19812256 359.39899902 43.2351123 359.3828125 42.24291992 C359.32820184 38.64421061 359.29395767 35.04553738 359.265625 31.4465332 C359.25060887 29.89373601 359.23018964 28.34098072 359.20410156 26.78833008 C359.16739919 24.54660658 359.15062205 22.30544742 359.13745117 20.06347656 C359.12196732 19.37777084 359.10648346 18.69206512 359.0905304 17.98558044 C359.08878876 12.91149287 360.13691506 9.58879997 362.43041992 5.16113281 C367.06876365 0.64172097 370.72777759 0.04360215 377.02172852 0 C378.1432431 -0.00960754 379.26475769 -0.01921509 380.42025757 -0.02911377 C382.2312645 -0.03548859 382.2312645 -0.03548859 384.07885742 -0.04199219 C385.32414215 -0.04769226 386.56942688 -0.05339233 387.85244751 -0.05926514 C390.48687391 -0.0687107 393.12118651 -0.07561004 395.75561523 -0.07910156 C398.45204132 -0.08349512 401.14814901 -0.09742256 403.84448242 -0.12011719 C407.73520624 -0.15057295 411.6255277 -0.16114854 415.51635742 -0.16699219 C416.71964691 -0.17933899 417.9229364 -0.19168579 419.16268921 -0.20440674 C429.62138985 -0.17657639 429.62138985 -0.17657639 434.43041992 3.16113281 C438.42925772 7.43575253 438.55532109 11.57801246 438.57086182 17.25166321 C438.57657196 18.5007547 438.5822821 19.74984619 438.58816528 21.03678894 C438.58941055 22.41848745 438.59053567 23.80018607 438.59155273 25.18188477 C438.5961828 26.63908005 438.60120772 28.09627413 438.6065979 29.5534668 C438.61970542 33.51018487 438.62616359 37.46688598 438.63060856 41.42362237 C438.63354184 43.89681427 438.63764712 46.37000157 438.64211273 48.84319115 C438.65578309 56.58472939 438.6654521 64.32625707 438.66931462 72.06780654 C438.67379491 80.9978931 438.69134334 89.92782657 438.72031522 98.85786659 C438.74194475 105.76500903 438.75201958 112.67210843 438.75335574 119.57928437 C438.75440282 123.70261314 438.76029003 127.8257979 438.77817535 131.94909096 C438.79467818 135.82904956 438.79680091 139.70875625 438.78803635 143.58873749 C438.78726716 145.00969557 438.79159307 146.43066732 438.8014946 147.85159111 C438.90127316 163.06730592 438.90127316 163.06730592 432.99291992 170.03613281 C428.46546061 173.79061127 423.86144282 173.28887424 418.18041992 173.22363281 C417.4353418 173.21912109 416.69026367 173.21460938 415.92260742 173.20996094 C414.09184352 173.19822527 412.26112119 173.18029131 410.43041992 173.16113281 C410.47682617 174.17433594 410.52323242 175.18753906 410.57104492 176.23144531 C410.6085875 177.58297813 410.64498499 178.93454309 410.68041992 180.28613281 C410.71393555 180.95128906 410.74745117 181.61644531 410.78198242 182.30175781 C410.88289818 187.44846126 409.60784191 190.1834273 406.43041992 194.16113281 C403.55469368 197.13956356 400.6320722 197.85609685 396.52026367 198.22363281 C392.952387 198.11692996 390.48644337 196.92422327 387.43041992 195.16113281 C380.42472091 187.6023523 382.43041992 185.9015363 382.43041992 173.16113281 C268.25041992 173.16113281 154.07041992 173.16113281 36.43041992 173.16113281 C36.43041992 177.12113281 36.43041992 181.08113281 36.43041992 185.16113281 C35.23290811 189.95118008 34.37092456 192.3275037 30.68041992 195.59863281 C25.60215011 198.04010868 21.62652559 198.78405673 16.24291992 197.03613281 C12.56911695 195.48402225 10.56963928 193.58388379 8.43041992 190.16113281 C7.24360267 186.60068104 7.3335216 183.72304944 7.36791992 179.97363281 C7.37694336 178.70132813 7.3859668 177.42902344 7.39526367 176.11816406 C7.40686523 175.14234375 7.4184668 174.16652344 7.43041992 173.16113281 C6.71756836 173.1959375 6.0047168 173.23074219 5.27026367 173.26660156 C-0.86602389 173.44003634 -5.25710706 173.34861663 -10.56958008 170.16113281 C-14.15624888 166.74258911 -16.45511366 163.52435615 -16.70100784 158.44773293 C-16.70398251 157.34346647 -16.70695717 156.23920002 -16.71002197 155.10147095 C-16.71573212 153.83403549 -16.72144226 152.56660004 -16.72732544 151.26075745 C-16.72857078 149.85336314 -16.72969588 148.44596871 -16.73071289 147.03857422 C-16.73534144 145.55857723 -16.74036615 144.07858144 -16.74575806 142.59858704 C-16.75887955 138.57583044 -16.7653264 134.55309053 -16.76976871 130.53031588 C-16.77269954 128.01744518 -16.77680434 125.50457906 -16.78127289 122.99171066 C-16.79494648 115.13057146 -16.8046141 107.26944268 -16.80847478 99.40829241 C-16.81295687 90.33158559 -16.83051231 81.25502927 -16.85947537 72.17836821 C-16.88108331 65.1634225 -16.89117857 58.14851916 -16.8925159 51.13354051 C-16.89356447 46.94319206 -16.89948331 42.7529851 -16.91733551 38.56267166 C-16.93380115 34.62117546 -16.93597914 30.67992735 -16.9271965 26.73840904 C-16.92642534 25.29242349 -16.93077927 23.84642468 -16.94065475 22.40047264 C-16.95335295 20.4252762 -16.94571348 18.44998032 -16.93707275 16.47476196 C-16.93853931 15.36974146 -16.94000587 14.26472095 -16.94151688 13.12621498 C-16.36251421 8.51040262 -14.47620634 5.97709644 -11.06958008 2.91113281 C-7.3054551 0.27624533 -4.48158642 0.03042974 0 0 Z " fill="#000000" transform="translate(44.569580078125,313.8388671875)"/>
<path d="M0 0 C6.64459313 4.74955515 12.30861696 11.16510784 18.05990601 16.92619324 C19.05512896 17.91954457 20.05056696 18.91268049 21.04619944 19.90562135 C23.76288243 22.61622409 26.47647188 25.32990488 29.18952441 28.0441407 C32.12291394 30.97773517 35.05916769 33.90846058 37.99502563 36.83958435 C43.73728137 42.5735557 49.47677704 48.31028199 55.21517126 54.0481176 C59.87767654 58.71014704 64.54097211 63.3713845 69.20482254 68.03206825 C82.43072042 81.24916865 95.65452896 94.46835434 108.87565343 107.69022962 C109.5874837 108.40209984 110.29931396 109.11397006 111.03271484 109.84741211 C111.74541376 110.5601519 112.45811267 111.2728917 113.19240852 112.00722966 C124.76155404 123.57678228 136.33568889 135.14132936 147.9120764 146.7036353 C159.80158354 158.57879394 171.6873738 170.45766155 183.56927645 182.34042913 C190.23917213 189.01065711 196.91060662 195.67932923 203.5860405 202.34401512 C209.26444218 208.0133323 214.9393954 213.68607316 220.60985272 219.36333676 C223.50376645 222.26052497 226.39928665 225.15605906 229.29915619 228.04728699 C231.95182101 230.69212769 234.5998567 233.34151178 237.24422844 235.99464337 C238.65867057 237.41136266 240.07805373 238.82314349 241.49758661 240.23476189 C242.33265005 241.07442413 243.1677135 241.91408637 244.02808189 242.77919292 C244.75204891 243.50294257 245.47601592 244.22669221 246.22192132 244.97237366 C250.15052366 249.45234278 250.55043734 253.41041314 250.44921875 259.234375 C249.73418922 263.63646985 247.53431162 266.37034949 244 269 C239.69074234 271.17849324 235.65560225 271.29626699 230.92431641 271.29052734 C230.12528397 271.29724457 229.32625153 271.30396179 228.50300598 271.31088257 C225.86912773 271.32983554 223.23550465 271.33378534 220.6015625 271.3359375 C218.76459652 271.34236713 216.92763157 271.34909562 215.09066772 271.35610962 C211.24238715 271.3680755 207.3941963 271.37179113 203.54589844 271.37060547 C198.62417001 271.37040228 193.70301901 271.39770734 188.78142738 271.43214989 C184.98777646 271.45442924 181.1942643 271.4584427 177.40055466 271.45738602 C175.58653142 271.4597403 173.77250426 271.46855409 171.95854568 271.48405075 C169.41678104 271.50373271 166.87625898 271.49786468 164.33447266 271.48583984 C163.59138351 271.49707886 162.84829437 271.50831787 162.08268738 271.51989746 C151.10741324 271.38851183 144.94536278 263.36743342 137.75976562 256.11621094 C136.63773645 254.99497352 135.51505324 253.87439027 134.39176941 252.75440979 C131.35397264 249.72173047 128.32556384 246.6798338 125.29891777 243.63603115 C122.12157692 240.44360093 118.93607922 237.25932929 115.75158691 234.07403564 C110.40373583 228.72249615 105.061544 223.36536171 99.72314453 218.00439453 C92.88744808 211.13985817 86.04254867 204.2845766 79.19464874 197.43221664 C73.28928819 191.52286306 67.38818735 185.60926087 61.48776054 179.69498158 C59.60014396 177.80328279 57.71195356 175.9121582 55.82368469 174.02111053 C52.84662823 171.03912665 49.87225363 168.05449152 46.8998661 165.06785393 C45.81355533 163.97705621 44.72643208 162.88706689 43.63840294 161.79798317 C38.3909259 156.54428288 33.23076158 151.26101807 28.39583397 145.62042618 C26.75944353 143.72073756 25.04409261 141.9234336 23.26782227 140.15429688 C22.62768692 139.51423706 21.98755157 138.87417725 21.32801819 138.21472168 C20.33227028 137.2267157 20.33227028 137.2267157 19.31640625 136.21875 C18.61603745 135.51979614 17.91566864 134.82084229 17.19407654 134.10070801 C14.98591542 131.89808461 12.77427963 129.69898919 10.5625 127.5 C9.05250186 125.99502492 7.5427341 124.48981865 6.03320312 122.984375 C2.35812359 119.32024171 -1.32007356 115.6592652 -5 112 C-9.00165448 113.60713217 -11.68961064 116.41432333 -14.66723633 119.42431641 C-15.49980705 120.25403961 -15.49980705 120.25403961 -16.34919739 121.1005249 C-18.18172973 122.92935522 -20.00696313 124.76528559 -21.83203125 126.6015625 C-23.10955401 127.88027831 -24.3874477 129.15862364 -25.66569519 130.43661499 C-28.34607678 133.11856087 -31.02306668 135.80383165 -33.69750977 138.49169922 C-37.10841748 141.91951919 -40.5257923 145.34079813 -43.94554615 148.75979042 C-46.58741677 151.40193455 -49.22666055 154.0466897 -51.86505699 156.6923027 C-53.12303486 157.95344161 -54.38160065 159.21399437 -55.64078712 160.47392654 C-57.41123497 162.24656987 -59.17833632 164.02248531 -60.94458008 165.79931641 C-61.4554718 166.30975494 -61.96636353 166.82019348 -62.49273682 167.34609985 C-65.21534756 170.09231858 -67.81065681 172.90689703 -70.33659363 175.83560181 C-74.26001931 180.35916254 -78.44016465 184.59521491 -82.66992188 188.83105469 C-83.50826065 189.67435837 -84.34659943 190.51766205 -85.21034241 191.38652039 C-87.48725087 193.6754365 -89.76638514 195.96210136 -92.04706764 198.24725628 C-93.47562335 199.67876255 -94.90359843 201.11084563 -96.33140564 202.54309845 C-100.81044063 207.0357608 -105.29143803 211.5264518 -109.77535105 216.01424575 C-114.93140109 221.17478518 -120.08082555 226.34181828 -125.22464895 231.51454425 C-129.21785119 235.52939612 -133.21683192 239.53843242 -137.22020578 243.5431416 C-139.60437799 245.92835814 -141.9860949 248.31590516 -144.36180115 250.70955658 C-147.01085865 253.37568243 -149.66923391 256.03216796 -152.33007812 258.68652344 C-153.10742813 259.47308823 -153.88477814 260.25965302 -154.6856842 261.0700531 C-160.55195289 266.89166225 -165.34255343 271.40825571 -174.07157898 271.53100586 C-174.81309708 271.52133789 -175.55461517 271.51166992 -176.31860352 271.50170898 C-177.51999969 271.50981346 -177.51999969 271.50981346 -178.7456665 271.51808167 C-181.3737975 271.53051436 -184.00082134 271.51411649 -186.62890625 271.49609375 C-188.46540891 271.49624885 -190.30191189 271.49773966 -192.13841248 271.50050354 C-195.97906034 271.50188503 -199.81933363 271.48937018 -203.65991211 271.46655273 C-208.57490916 271.43814882 -213.48928519 271.44091422 -218.40432835 271.45364285 C-222.19367244 271.46060753 -225.98287377 271.45280205 -229.77219963 271.44038582 C-231.58423248 271.43588041 -233.3962807 271.43552654 -235.2083149 271.43945122 C-237.74279176 271.44237172 -240.27642141 271.4258176 -242.81079102 271.40405273 C-243.55433334 271.40855438 -244.29787567 271.41305603 -245.06394958 271.41769409 C-251.33275789 271.32854887 -255.19337807 269.57097559 -259.875 265.5 C-262.67051813 261.88120631 -262.5600394 258.21258057 -262.56640625 253.78125 C-260.97628037 245.97318359 -253.69039947 240.40507958 -248.2961731 235.02874756 C-247.29012599 234.01896135 -246.28451133 233.00874414 -245.27929103 231.99813485 C-242.52242414 229.22905543 -239.75936084 226.46623305 -236.9952023 223.70443487 C-234.01270003 220.72234119 -231.03593339 217.73453121 -228.05838013 214.74749756 C-222.22728831 208.89980612 -216.39066148 203.0576699 -210.55182232 197.217715 C-205.80702602 192.47196807 -201.06381326 187.72464427 -196.32171249 182.97620392 C-182.87796068 169.51484528 -169.43002969 156.05768178 -155.97672142 142.60587379 C-155.25173245 141.88096474 -154.52674349 141.15605568 -153.77978516 140.40917969 C-153.05391102 139.68338731 -152.32803688 138.95759494 -151.58016656 138.20980886 C-139.80722153 126.43767735 -128.0442932 114.65559302 -116.28585519 102.86897299 C-104.21341582 90.76782731 -92.13355656 78.67413271 -80.04589069 66.58819604 C-73.25916328 59.80213314 -66.47556138 53.01301177 -59.69992447 46.21587372 C-53.93337091 40.43113841 -48.15997611 34.65334178 -42.37752642 28.88449451 C-39.42692729 25.94043919 -36.4796677 22.99323144 -33.54100037 20.03726196 C-30.85146945 17.33205873 -28.15289786 14.63623258 -25.44678746 11.94761732 C-24.46888328 10.97279584 -23.49435441 9.99457429 -22.52356125 9.01267096 C-21.20420823 7.67922255 -19.87128815 6.35923872 -18.53775215 5.03997421 C-17.80098468 4.302772 -17.06421721 3.5655698 -16.30512345 2.80602813 C-11.45085279 -0.99721693 -5.85315303 -2.05657273 0 0 Z " fill="#010100" transform="translate(262,1)"/>
<path d="M0 0 C3.14170179 1.39349079 5.26957758 3.01984038 7.69375229 5.44486332 C8.41581258 6.16232481 9.13787286 6.8797863 9.88181376 7.61898905 C10.6678068 8.41012565 11.45379983 9.20126225 12.26361084 10.01637268 C13.10415677 10.8545042 13.94470271 11.69263572 14.81071973 12.55616516 C17.1426613 14.88344189 19.47002759 17.21512959 21.79557538 19.54878509 C24.30453951 22.06432428 26.81925933 24.57409805 29.33326721 27.08459473 C34.25653083 32.00281524 39.17443424 36.92636238 44.09054938 41.8517272 C49.8111905 47.58274526 55.53704791 53.30853974 61.26312271 59.03412794 C71.47526875 69.24577329 81.68257434 79.46224344 91.88720703 89.68139648 C101.79926815 99.60755442 111.71483399 109.53019383 121.63427734 119.44897461 C122.24556054 120.06021785 122.85684374 120.6714611 123.48665068 121.30122686 C124.09685734 121.91139317 124.70706401 122.52155949 125.33576179 123.15021569 C136.61720112 134.43096608 147.89535163 145.71499942 159.17196588 157.000573 C163.16625401 160.99788314 167.16152351 164.99421085 171.15709686 168.99023628 C176.0210688 173.85488874 180.88315496 178.72141706 185.74285999 183.59033222 C188.22461782 186.07672216 190.70717226 188.56230279 193.19187355 191.04575157 C195.87874125 193.73133045 198.5617449 196.42074759 201.24432373 199.11061096 C202.03923965 199.90397828 202.83415557 200.6973456 203.65315986 201.51475435 C204.36478915 202.2296081 205.07641845 202.94446184 205.80961227 203.68097782 C206.43018533 204.3022553 207.05075838 204.92353277 207.69013667 205.56363684 C209 207 209 207 209 208 C195.44759151 210.75685023 179.40123003 212.94735904 167.12625122 205.24524689 C155.30017459 196.79000079 145.40323961 185.70541987 135.49864006 175.15142107 C131.11387784 170.52145946 126.62012857 165.99967214 122.1373291 161.4649353 C114.64437518 153.85694899 107.21847648 146.18955368 99.84228516 138.46875 C92.26382664 130.53663797 84.65061309 122.64077644 76.98583984 114.79199219 C76.51150735 114.30624271 76.03717486 113.82049324 75.54846865 113.32002409 C72.6952714 110.39882785 69.84060199 107.47907379 66.98532832 104.55990723 C62.82872578 100.31019295 58.67371033 96.05892912 54.51989746 91.80648804 C53.62827518 90.89372805 52.7366529 89.98096806 51.81801176 89.04054868 C45.67514372 82.74531007 39.56542202 76.41906324 33.46936035 70.07852173 C31.05728994 67.57523337 28.64474655 65.07240165 26.23211861 62.56965065 C24.00071912 60.24958049 21.77792675 57.92148674 19.55528259 55.59303284 C18.21741758 54.20448307 16.87915009 52.81632093 15.54040527 51.42861938 C14.94598334 50.8002205 14.3515614 50.17182161 13.73912668 49.52438033 C9.6357942 45.29649276 6.55981293 43.27925232 0.5625 42.625 C-6.49809296 43.36822031 -10.92407082 48.68451381 -15.58473206 53.59320068 C-16.2212046 54.25407031 -16.85767714 54.91493994 -17.51343673 55.59583592 C-18.90292624 57.03967689 -20.28992284 58.4859201 -21.67471886 59.93426323 C-24.72079257 63.11966485 -27.77931255 66.2930067 -30.83724296 69.46702147 C-32.48417732 71.17649955 -34.13052652 72.88654156 -35.77633107 74.59710741 C-46.83380582 86.08354054 -57.99203713 97.47185791 -69.14423278 108.86621515 C-71.49924585 111.2727937 -73.85330552 113.6803027 -76.20678711 116.08837891 C-76.67517759 116.56760588 -77.14356808 117.04683285 -77.62615221 117.54058185 C-85.18172341 125.27476792 -92.67218196 133.06916566 -100.14083029 140.88721272 C-107.84011817 148.94353904 -115.61225638 156.92506193 -123.44844192 164.84837556 C-127.83496649 169.28846739 -132.18355758 173.75441968 -136.45483589 178.30571747 C-165.53838572 209.22786388 -165.53838572 209.22786388 -183.26128882 210.31411767 C-191.28065932 210.47829851 -199.14763377 209.57030268 -207 208 C-202.46598419 202.56487621 -197.66056062 197.52120919 -192.6477356 192.52748108 C-191.82181502 191.70070608 -190.99589445 190.87393108 -190.14494598 190.0221023 C-187.86858788 187.74438855 -185.59001652 185.46891697 -183.31046534 183.19439971 C-180.84656071 180.73483314 -178.3855669 178.27235698 -175.92420959 175.8102417 C-171.66485238 171.55036137 -167.40367516 167.29230873 -163.14123917 163.03550911 C-156.97855396 156.88096772 -150.81864784 150.72365095 -144.65940593 144.56566387 C-134.66519315 134.57363708 -124.66875151 124.58384325 -114.67089844 114.59545898 C-104.96171578 104.89546216 -95.25358905 95.19441053 -85.546875 85.49194336 C-84.94806523 84.89339631 -84.34925546 84.29484927 -83.73229994 83.67816443 C-80.7281082 80.67527778 -77.72393715 77.67237043 -74.71977639 74.66945279 C-49.81639081 49.77642572 -24.90938387 24.88702478 0 0 Z " fill="#FEB828" transform="translate(255,36)"/>
<path d="M0 0 C98.67 0 197.34 0 299 0 C299 9.24 299 18.48 299 28 C200.33 28 101.66 28 0 28 C0 18.76 0 9.52 0 0 Z " fill="#B0E5D8" transform="translate(106,431)"/>
<path d="M0 0 C5.23636405 1.81258755 7.37904871 4.17327711 10 9 C10.5106941 11.83685991 10.46908164 14.58609475 10.390625 17.4609375 C10.38496521 18.25150543 10.37930542 19.04207336 10.37347412 19.8565979 C10.35121487 22.36336727 10.30104153 24.86866813 10.25 27.375 C10.22992133 29.0820105 10.21167296 30.78904357 10.1953125 32.49609375 C10.15479764 36.66507318 10.07649711 40.83090752 10 45 C20.56 45 31.12 45 42 45 C41.96519531 42.61523438 41.93039062 40.23046875 41.89453125 37.7734375 C41.87109914 35.45004472 41.85290345 33.12666537 41.83520508 30.80322266 C41.82016824 29.19508928 41.79973328 27.58699656 41.77368164 25.97900391 C41.73707178 23.66037936 41.72022278 21.34229951 41.70703125 19.0234375 C41.69154739 18.31069672 41.67606354 17.59795593 41.66011047 16.86361694 C41.65854172 12.15409175 42.5175551 8.99627487 45 5 C49.36064187 1.06478661 51.95980283 -0.31179669 57.90625 -0.21484375 C62.40121892 0.24639373 65.22691978 2.20602572 68.3125 5.375 C71.5645205 10.43369856 71.14851995 15.88411494 71.14526367 21.73413086 C71.14862228 22.60304459 71.1519809 23.47195831 71.15544128 24.36720276 C71.16492274 27.23309772 71.16689288 30.09893409 71.16796875 32.96484375 C71.1711829 34.96114628 71.17454709 36.95744857 71.17805481 38.95375061 C71.18403878 43.13575792 71.18589542 47.31774458 71.18530273 51.49975586 C71.18520107 56.85410653 71.19886141 62.20832474 71.21607494 67.562644 C71.22720098 71.68478502 71.22922177 75.80689405 71.22869301 79.92904854 C71.2298719 81.90297465 71.23428856 83.87690161 71.24202538 85.85081291 C71.25183887 88.61279428 71.24894198 91.37448847 71.24291992 94.13647461 C71.24853943 94.9486142 71.25415894 95.76075378 71.25994873 96.59750366 C71.22154496 103.54028685 69.99158866 108.86579452 65 114 C60.96163823 116.35571103 56.57926425 116.73627386 52 116 C46.89790078 113.30455136 43.82618963 110.4785689 42 105 C41.91602843 102.64319787 41.89271813 100.28405919 41.90234375 97.92578125 C41.90484131 96.67450439 41.90733887 95.42322754 41.90991211 94.1340332 C41.91901611 92.54292725 41.92812012 90.95182129 41.9375 89.3125 C41.9684375 81.7328125 41.9684375 81.7328125 42 74 C31.44 74 20.88 74 10 74 C10.04640625 76.31257813 10.0928125 78.62515625 10.140625 81.0078125 C10.17187065 83.26169645 10.19612967 85.51555576 10.21972656 87.76953125 C10.23977222 89.32921244 10.26701657 90.88881913 10.30175781 92.44824219 C10.35059126 94.69745314 10.37303815 96.9456659 10.390625 99.1953125 C10.41127014 99.8861795 10.43191528 100.57704651 10.45318604 101.28884888 C10.45549146 106.32689854 9.16174523 109.1286953 6 113 C1.5190454 116.05519632 -2.70385577 116.94271367 -8 116 C-12.87090795 113.56454603 -15.42515808 110.75942828 -18 106 C-18.56299716 102.86134603 -18.54730939 99.78391751 -18.51757812 96.6015625 C-18.5245874 95.67398132 -18.53159668 94.74640015 -18.53881836 93.79071045 C-18.55637352 90.73516598 -18.54478418 87.68055332 -18.53125 84.625 C-18.53394562 82.49560367 -18.53782862 80.36620853 -18.54284668 78.23681641 C-18.54873838 73.77820087 -18.54018911 69.3199063 -18.52148438 64.86132812 C-18.4986953 59.15144298 -18.5118201 53.44230995 -18.53577423 47.73245239 C-18.5502409 43.33661247 -18.54562217 38.94095031 -18.53526306 34.54510498 C-18.53259819 32.44000153 -18.53585707 30.33488185 -18.54518127 28.22979736 C-18.55536093 25.28557696 -18.53982548 22.34256788 -18.51757812 19.3984375 C-18.52567505 18.53176453 -18.53377197 17.66509155 -18.54211426 16.77215576 C-18.46660218 11.36724425 -17.584638 8.29084871 -14 4 C-9.44078653 0.06249745 -5.82257935 -0.94325785 0 0 Z " fill="#000000" transform="translate(230,198)"/>
<path d="M0 0 C7.59 0 15.18 0 23 0 C23 38.61 23 77.22 23 117 C15.41 117 7.82 117 0 117 C0 78.39 0 39.78 0 0 Z " fill="#ACE1D3" transform="translate(432,342)"/>
<path d="M0 0 C7.59 0 15.18 0 23 0 C23 38.61 23 77.22 23 117 C15.41 117 7.82 117 0 117 C0 78.39 0 39.78 0 0 Z " fill="#B0E6D9" transform="translate(56,342)"/>
<path d="M0 0 C44.88 0 89.76 0 136 0 C136 5.61 136 11.22 136 17 C91.12 17 46.24 17 0 17 C0 11.39 0 5.78 0 0 Z " fill="#F9F9F9" transform="translate(269,387)"/>
<path d="M0 0 C4.98099986 -0.06918055 9.9603073 -0.12881819 14.94140625 -0.16479492 C16.63287022 -0.17980505 18.32429578 -0.20021963 20.015625 -0.22631836 C22.45843024 -0.26304686 24.9007173 -0.27980411 27.34375 -0.29296875 C28.46299866 -0.31619453 28.46299866 -0.31619453 29.6048584 -0.33988953 C36.20246889 -0.34196547 41.98434471 1.25668686 47.3125 5.25 C55.42642508 13.55262101 53 21.19354368 53 33 C35.51 33 18.02 33 0 33 C0 22.11 0 11.22 0 0 Z " fill="#FBFBFB" transform="translate(106,371)"/>
<path d="M0 0 C18.15 0 36.3 0 55 0 C55 5.61 55 11.22 55 17 C36.85 17 18.7 17 0 17 C0 11.39 0 5.78 0 0 Z " fill="#F8F8F8" transform="translate(187,387)"/>
</svg>
